<?xml version="1.0" encoding="UTF-8"?>
<svg id="straight" xmlns="http://www.w3.org/2000/svg" xmlns:xlink="http://www.w3.org/1999/xlink" viewBox="0 0 1938.685 973.282">
  <defs>
    <style>
      .cls-1 {
        fill: none;
      }

      .cls-2 {
        clip-path: url(#clippath);
      }

      .cls-3 {
        fill: #fff;
      }

      .cls-4 {
        fill: #352f2d;
      }

      .cls-5 {
        clip-path: url(#clippath-1);
      }
    </style>
    <clipPath id="clippath">
      <rect class="cls-1" width="179.509" height="972.782"/>
    </clipPath>
    <clipPath id="clippath-1">
      <rect class="cls-1" x="179.509" y="12.782" width="145.97" height="960"/>
    </clipPath>
  </defs>
  <g id="gray">
    <g>
      <g class="cls-2">
        <g>
          <path class="cls-3" d="M161.26,186.049c1.4,.666,2.935,1,4.6,1,1.533,0,3.033-.65,4.5-1.95,1.465-1.3,2.2-3.55,2.2-6.75V104.749h12.1v75.8c0,2.933-.467,5.466-1.4,7.6-.935,2.133-2.217,3.9-3.85,5.3-1.634,1.4-3.584,2.416-5.85,3.05-2.267,.633-4.734,.95-7.4,.95-2.065,0-4.065-.285-6-.85-1.933-.567-3.633-1.25-5.1-2.05-1.465-.8-2.633-1.567-3.5-2.3l6.3-8.7c.867,1,2,1.833,3.4,2.5Z"/>
          <path class="cls-3" d="M144.96,270.249c1.8-4.4,4.35-8.216,7.65-11.45,3.3-3.232,7.166-5.75,11.6-7.55,4.433-1.8,9.216-2.7,14.35-2.7,5.266,0,10.1,.9,14.5,2.7s8.25,4.317,11.55,7.55c3.3,3.234,5.85,7.05,7.65,11.45,1.8,4.4,2.7,9.234,2.7,14.5,0,5.2-.9,10.034-2.7,14.5-1.8,4.467-4.334,8.334-7.6,11.6-3.268,3.267-7.117,5.817-11.55,7.65-4.434,1.833-9.284,2.75-14.55,2.75-5.2,0-10.035-.917-14.5-2.75-4.467-1.833-8.317-4.383-11.55-7.65-3.234-3.266-5.75-7.133-7.55-11.6-1.8-4.466-2.7-9.3-2.7-14.5,0-5.266,.9-10.1,2.7-14.5Zm12.85,27.35c2.033,3.767,4.85,6.717,8.45,8.85,3.6,2.134,7.7,3.2,12.3,3.2,4.666,0,8.783-1.065,12.35-3.2,3.565-2.133,6.365-5.083,8.4-8.85,2.033-3.766,3.05-8.05,3.05-12.85s-1-9.083-3-12.85c-2-3.766-4.784-6.715-8.35-8.85-3.567-2.133-7.717-3.2-12.45-3.2-4.6,0-8.7,1.067-12.3,3.2-3.6,2.135-6.417,5.084-8.45,8.85-2.035,3.767-3.05,8.05-3.05,12.85s1.016,9.084,3.05,12.85Z"/>
          <path class="cls-3" d="M184.51,394.749v70h-11.9v-70h11.9Z"/>
          <path class="cls-3" d="M209.959,539.749v73.5l-51.1-50.5v47h-11.6v-73.5l51.1,50.5v-47h11.6Z"/>
          <path class="cls-3" d="M152.459,754.749h-12.2l9.6-73.5,28.7,47.5,28.8-47.5,9.6,73.5h-12.2l-4.9-42.6-21.3,36.1-21.3-36.1-4.8,42.6Z"/>
          <path class="cls-3" d="M169.409,829.749v70h-11.6v-70h11.6Zm-4.3,0h35.3v10.4h-35.3v-10.4Zm0,27.4h33.3v10.199h-33.3v-10.199Zm0,32.199h35.3v10.4h-35.3v-10.4Z"/>
        </g>
      </g>
      <g class="cls-5">
        <g>
          <path class="cls-4" d="M161.16,186.049c1.4,.666,2.935,1,4.6,1,1.533,0,3.033-.65,4.5-1.95,1.465-1.3,2.2-3.55,2.2-6.75V104.749h12.1v75.8c0,2.933-.467,5.466-1.4,7.6-.935,2.133-2.217,3.9-3.85,5.3-1.634,1.4-3.584,2.416-5.85,3.05-2.267,.633-4.734,.95-7.4,.95-2.065,0-4.065-.285-6-.85-1.933-.567-3.633-1.25-5.1-2.05-1.465-.8-2.633-1.567-3.5-2.3l6.3-8.7c.867,1,2,1.833,3.4,2.5Z"/>
          <path class="cls-4" d="M144.86,270.249c1.8-4.4,4.35-8.216,7.65-11.45,3.3-3.232,7.166-5.75,11.6-7.55,4.433-1.8,9.216-2.7,14.35-2.7,5.266,0,10.1,.9,14.5,2.7s8.25,4.317,11.55,7.55c3.3,3.234,5.85,7.05,7.65,11.45,1.8,4.4,2.7,9.234,2.7,14.5,0,5.2-.9,10.034-2.7,14.5-1.8,4.467-4.334,8.334-7.6,11.6-3.268,3.267-7.117,5.817-11.55,7.65-4.434,1.833-9.284,2.75-14.55,2.75-5.2,0-10.035-.917-14.5-2.75-4.467-1.833-8.317-4.383-11.55-7.65-3.234-3.266-5.75-7.133-7.55-11.6-1.8-4.466-2.7-9.3-2.7-14.5,0-5.266,.9-10.1,2.7-14.5Zm12.85,27.35c2.033,3.767,4.85,6.717,8.45,8.85,3.6,2.134,7.7,3.2,12.3,3.2,4.666,0,8.783-1.065,12.35-3.2,3.565-2.133,6.365-5.083,8.4-8.85,2.033-3.766,3.05-8.05,3.05-12.85s-1-9.083-3-12.85c-2-3.766-4.784-6.715-8.35-8.85-3.567-2.133-7.717-3.2-12.45-3.2-4.6,0-8.7,1.067-12.3,3.2-3.6,2.135-6.417,5.084-8.45,8.85-2.035,3.767-3.05,8.05-3.05,12.85s1.016,9.084,3.05,12.85Z"/>
          <path class="cls-4" d="M184.41,394.749v70h-11.9v-70h11.9Z"/>
          <path class="cls-4" d="M209.859,539.749v73.5l-51.1-50.5v47h-11.6v-73.5l51.1,50.5v-47h11.6Z"/>
          <path class="cls-4" d="M152.36,754.749h-12.2l9.6-73.5,28.7,47.5,28.8-47.5,9.6,73.5h-12.2l-4.9-42.6-21.3,36.1-21.3-36.1-4.8,42.6Z"/>
          <path class="cls-4" d="M169.309,829.749v70h-11.6v-70h11.6Zm-4.3,0h35.3v10.4h-35.3v-10.4Zm0,27.4h33.3v10.199h-33.3v-10.199Zm0,32.199h35.3v10.4h-35.3v-10.4Z"/>
        </g>
      </g>
    </g>
  </g>
</svg>