<?xml version="1.0" encoding="utf-8"?>
<!-- Generator: Adobe Illustrator 27.0.1, SVG Export Plug-In . SVG Version: 6.00 Build 0)  -->
<svg version="1.1" id="圖層_1" xmlns="http://www.w3.org/2000/svg" xmlns:xlink="http://www.w3.org/1999/xlink" x="0px" y="0px"
	 viewBox="0 0 384 512" style="enable-background:new 0 0 384 512;" xml:space="preserve">
<style type="text/css">
	.st0{fill:#D01B1B;}
</style>
<path class="st0" d="M192,512C86,512,0,426,0,320C0,228.8,130.2,57.7,166.6,11.7c6-7.5,14.9-11.7,24.5-11.7h1.8
	c9.6,0,18.5,4.2,24.5,11.7C253.8,57.7,384,228.8,384,320C384,426,298,512,192,512z M96,336c0-8.8-7.2-16-16-16s-16,7.2-16,16
	c0,61.9,50.1,112,112,112c8.8,0,16-7.2,16-16s-7.2-16-16-16C131.8,416,96,380.2,96,336z"/>
</svg>
